#define font_2_width 8
#define font_2_height 336
static const char font_2_bits[] = {
   0x04, 0x0a, 0x0a, 0x0a, 0x1f, 0x11, 0x11, 0x11, 0x07, 0x09, 0x09, 0x09,
   0x0f, 0x11, 0x11, 0x0f, 0x0e, 0x11, 0x01, 0x01, 0x01, 0x01, 0x11, 0x0e,
   0x07, 0x09, 0x11, 0x11, 0x11, 0x11, 0x09, 0x07, 0x1f, 0x01, 0x01, 0x01,
   0x0f, 0x01, 0x01, 0x1f, 0x1f, 0x01, 0x01, 0x01, 0x0f, 0x01, 0x01, 0x01,
   0x0e, 0x11, 0x01, 0x01, 0x19, 0x11, 0x11, 0x0e, 0x11, 0x11, 0x11, 0x11,
   0x1f, 0x11, 0x11, 0x11, 0x1f, 0x04, 0x04, 0x04, 0x04, 0x04, 0x04, 0x1f,
   0x1f, 0x08, 0x08, 0x08, 0x08, 0x08, 0x09, 0x06, 0x11, 0x09, 0x05, 0x03,
   0x07, 0x09, 0x11, 0x11, 0x01, 0x01, 0x01, 0x01, 0x01, 0x01, 0x01, 0x1f,
   0x11, 0x1b, 0x15, 0x11, 0x11, 0x11, 0x11, 0x11, 0x11, 0x11, 0x13, 0x15,
   0x15, 0x19, 0x11, 0x11, 0x0e, 0x11, 0x11, 0x11, 0x11, 0x11, 0x11, 0x0e,
   0x0f, 0x11, 0x11, 0x11, 0x0f, 0x01, 0x01, 0x01, 0x0e, 0x11, 0x11, 0x11,
   0x11, 0x11, 0x09, 0x16, 0x0f, 0x11, 0x11, 0x11, 0x0f, 0x09, 0x11, 0x11,
   0x0e, 0x11, 0x01, 0x01, 0x0e, 0x10, 0x11, 0x0e, 0x1f, 0x04, 0x04, 0x04,
   0x04, 0x04, 0x04, 0x04, 0x11, 0x11, 0x11, 0x11, 0x11, 0x11, 0x11, 0x0e,
   0x11, 0x11, 0x11, 0x0a, 0x0a, 0x0a, 0x04, 0x04, 0x11, 0x11, 0x11, 0x11,
   0x15, 0x15, 0x15, 0x0a, 0x11, 0x11, 0x0a, 0x04, 0x04, 0x0a, 0x11, 0x11,
   0x11, 0x11, 0x11, 0x0a, 0x04, 0x04, 0x04, 0x04, 0x1f, 0x10, 0x10, 0x08,
   0x04, 0x02, 0x01, 0x1f, 0x0e, 0x11, 0x15, 0x15, 0x15, 0x15, 0x11, 0x0e,
   0x06, 0x04, 0x04, 0x04, 0x04, 0x04, 0x04, 0x1f, 0x0e, 0x11, 0x10, 0x08,
   0x04, 0x02, 0x01, 0x1f, 0x1f, 0x10, 0x08, 0x04, 0x08, 0x10, 0x11, 0x0e,
   0x10, 0x11, 0x11, 0x11, 0x1f, 0x10, 0x10, 0x10, 0x1f, 0x11, 0x01, 0x01,
   0x0e, 0x10, 0x11, 0x0e, 0x0e, 0x11, 0x01, 0x01, 0x0f, 0x11, 0x11, 0x0e,
   0x1f, 0x11, 0x10, 0x08, 0x04, 0x04, 0x04, 0x04, 0x0e, 0x11, 0x11, 0x0e,
   0x11, 0x11, 0x11, 0x0e, 0x0e, 0x11, 0x11, 0x1e, 0x10, 0x10, 0x10, 0x10,
   0x00, 0x00, 0x00, 0x00, 0x00, 0x00, 0x00, 0x04, 0x00, 0x00, 0x04, 0x00,
   0x00, 0x04, 0x00, 0x00, 0x04, 0x04, 0x04, 0x04, 0x04, 0x04, 0x00, 0x04,
   0x00, 0x00, 0x00, 0x00, 0x0e, 0x00, 0x00, 0x00, 0x00, 0x00, 0x00, 0x00,
   0x00, 0x00, 0x00, 0x1f, 0x00, 0x00, 0x00, 0x00, 0x00, 0x00, 0x00, 0x00 };
